<?xml version="1.0" encoding="UTF-8"?>
<svg xmlns="http://www.w3.org/2000/svg" xmlns:xlink="http://www.w3.org/1999/xlink" width="100px" height="89px" viewBox="0 0 100 89" version="1.1">
<g id="surface1">
<path style=" stroke:none;fill-rule:nonzero;fill:rgb(0%,0%,0%);fill-opacity:1;" d="M 53.75 27.550781 L 57.761719 3.441406 C 58.089844 1.460938 59.808594 0 61.824219 0 C 63.125 0 64.339844 0.609375 65.121094 1.652344 L 68.054688 5.5625 L 77.101562 5.5625 C 79.304688 5.5625 81.421875 6.449219 82.984375 8.011719 L 86.109375 11.125 L 95.832031 11.125 C 98.140625 11.125 100 12.984375 100 15.296875 L 100 19.46875 C 100 27.152344 93.785156 33.375 86.109375 33.375 L 74.078125 33.375 L 73.195312 38.675781 Z M 72.222656 44.515625 L 72.222656 83.4375 C 72.222656 86.515625 69.738281 89 66.667969 89 L 61.109375 89 C 58.039062 89 55.554688 86.515625 55.554688 83.4375 L 55.554688 63.414062 C 51.390625 65.550781 46.667969 66.75 41.667969 66.75 C 36.667969 66.75 31.945312 65.550781 27.777344 63.414062 L 27.777344 83.4375 C 27.777344 86.515625 25.296875 89 22.222656 89 L 16.667969 89 C 13.59375 89 11.109375 86.515625 11.109375 83.4375 L 11.109375 43.421875 C 6.109375 41.527344 2.1875 37.285156 0.832031 31.863281 L 0.171875 29.167969 C -0.574219 26.195312 1.234375 23.171875 4.21875 22.421875 C 7.203125 21.675781 10.207031 23.484375 10.953125 26.472656 L 11.632812 29.167969 C 12.238281 31.636719 14.460938 33.375 17.015625 33.375 L 52.742188 33.375 Z M 80.554688 13.90625 C 80.554688 12.375 79.304688 11.125 77.777344 11.125 C 76.25 11.125 75 12.375 75 13.90625 C 75 15.4375 76.25 16.6875 77.777344 16.6875 C 79.304688 16.6875 80.554688 15.4375 80.554688 13.90625 Z M 80.554688 13.90625 "/>
</g>
</svg>
