<?xml version="1.0" encoding="UTF-8"?>
<svg xmlns="http://www.w3.org/2000/svg" xmlns:xlink="http://www.w3.org/1999/xlink" width="100px" height="100px" viewBox="0 0 100 100" version="1.1">
<g id="surface1">
<path style=" stroke:none;fill-rule:nonzero;fill:rgb(0%,0%,0%);fill-opacity:1;" d="M 56.25 37.5 L 59.589844 37.5 C 63.90625 44.980469 71.992188 50 81.25 50 C 83.398438 50 85.507812 49.726562 87.5 49.21875 L 87.5 93.75 C 87.5 97.207031 84.707031 100 81.25 100 C 77.792969 100 75 97.207031 75 93.75 L 75 66.25 L 48.4375 87.5 L 59.375 87.5 C 62.832031 87.5 65.625 90.292969 65.625 93.75 C 65.625 97.207031 62.832031 100 59.375 100 L 31.25 100 C 20.898438 100 12.5 91.601562 12.5 81.25 L 12.5 37.597656 C 12.5 34.453125 10.15625 31.777344 7.03125 31.386719 L 5.488281 31.191406 C 2.050781 30.78125 -0.371094 27.65625 0.0390625 24.21875 C 0.449219 20.78125 3.59375 18.359375 7.011719 18.789062 L 8.554688 18.984375 C 17.929688 20.15625 24.980469 28.125 24.980469 37.597656 L 24.980469 54.257812 C 31.699219 44.160156 43.183594 37.5 56.230469 37.5 Z M 87.5 42.675781 C 85.546875 43.359375 83.4375 43.75 81.25 43.75 C 75.703125 43.75 70.703125 41.328125 67.265625 37.5 C 66.542969 36.699219 65.898438 35.839844 65.332031 34.921875 C 63.535156 32.03125 62.5 28.632812 62.5 25 L 62.5 2.089844 C 62.5 0.9375 63.417969 0.0195312 64.570312 0 L 64.609375 0 C 65.253906 0 65.859375 0.3125 66.25 0.820312 L 66.25 0.839844 L 68.75 4.160156 L 74.0625 11.25 L 75 12.5 L 87.5 12.5 L 88.4375 11.25 L 93.75 4.160156 L 96.25 0.839844 L 96.25 0.820312 C 96.640625 0.3125 97.246094 0 97.890625 0 L 97.929688 0 C 99.082031 0.0195312 100 0.9375 100 2.089844 L 100 25 C 100 28.378906 99.101562 31.5625 97.539062 34.296875 C 95.332031 38.164062 91.757812 41.171875 87.5 42.675781 Z M 78.125 25 C 78.125 23.28125 76.71875 21.875 75 21.875 C 73.28125 21.875 71.875 23.28125 71.875 25 C 71.875 26.71875 73.28125 28.125 75 28.125 C 76.71875 28.125 78.125 26.71875 78.125 25 Z M 87.5 28.125 C 89.21875 28.125 90.625 26.71875 90.625 25 C 90.625 23.28125 89.21875 21.875 87.5 21.875 C 85.78125 21.875 84.375 23.28125 84.375 25 C 84.375 26.71875 85.78125 28.125 87.5 28.125 Z M 87.5 28.125 "/>
</g>
</svg>
